<svg width="200" height="200" viewBox="0 0 200 200" xmlns="http://www.w3.org/2000/svg">
  <defs>
    <linearGradient id="globeGradient" x1="0%" y1="0%" x2="100%" y2="100%">
      <stop offset="0%" style="stop-color:#0E2841;stop-opacity:0.8"/>
      <stop offset="50%" style="stop-color:#E97031;stop-opacity:0.6"/>
      <stop offset="100%" style="stop-color:#0E2841;stop-opacity:0.9"/>
    </linearGradient>
    <radialGradient id="sphereGradient" cx="40%" cy="30%">
      <stop offset="0%" style="stop-color:#ffffff;stop-opacity:0.3"/>
      <stop offset="100%" style="stop-color:#0E2841;stop-opacity:0.8"/>
    </radialGradient>
  </defs>

  <!-- Globo base -->
  <circle cx="100" cy="100" r="80" fill="url(#sphereGradient)" stroke="#0E2841" stroke-width="2"/>

  <!-- Linhas de latitude -->
  <ellipse cx="100" cy="100" rx="80" ry="20" fill="none" stroke="#E97031" stroke-width="1" opacity="0.6"/>
  <ellipse cx="100" cy="100" rx="80" ry="40" fill="none" stroke="#E97031" stroke-width="1" opacity="0.4"/>
  <ellipse cx="100" cy="100" rx="80" ry="60" fill="none" stroke="#E97031" stroke-width="1" opacity="0.3"/>

  <!-- Linhas de longitude -->
  <ellipse cx="100" cy="100" rx="20" ry="80" fill="none" stroke="#E97031" stroke-width="1" opacity="0.6"/>
  <ellipse cx="100" cy="100" rx="40" ry="80" fill="none" stroke="#E97031" stroke-width="1" opacity="0.4"/>
  <ellipse cx="100" cy="100" rx="60" ry="80" fill="none" stroke="#E97031" stroke-width="1" opacity="0.3"/>

  <!-- Linha equatorial -->
  <line x1="20" y1="100" x2="180" y2="100" stroke="#0E2841" stroke-width="2" opacity="0.8"/>

  <!-- Continentes estilizados -->
  <path d="M 60 80 Q 80 70 100 80 Q 120 85 140 80 Q 130 100 120 110 Q 100 105 80 110 Q 70 95 60 80"
        fill="#0E2841" opacity="0.4"/>
  <path d="M 70 120 Q 90 115 110 125 Q 100 140 85 135 Q 75 130 70 120"
        fill="#0E2841" opacity="0.3"/>

  <!-- Brilho do globo -->
  <ellipse cx="75" cy="70" rx="15" ry="25" fill="#ffffff" opacity="0.2"/>
</svg>